Coordinates
version=1
nRows=7
nColumns=40
inDegrees=yes

Units are S.I. units (second, meters, Newtons, ...)
If the header above contains a line with 'inDegrees', this indicates whether rotational values are in degrees (yes) or radians (no).

endheader
time	pelvis_tilt	pelvis_list	pelvis_rotation	pelvis_tx	pelvis_ty	pelvis_tz	hip_flexion_r	hip_adduction_r	hip_rotation_r	knee_angle_r	knee_angle_r_beta	ankle_angle_r	subtalar_angle_r	mtp_angle_r	hip_flexion_l	hip_adduction_l	hip_rotation_l	knee_angle_l	knee_angle_l_beta	ankle_angle_l	subtalar_angle_l	mtp_angle_l	lumbar_extension	lumbar_bending	lumbar_rotation	arm_flex_r	arm_add_r	arm_rot_r	elbow_flex_r	pro_sup_r	wrist_flex_r	wrist_dev_r	arm_flex_l	arm_add_l	arm_rot_l	elbow_flex_l	pro_sup_l	wrist_flex_l	wrist_dev_l
      2.31500000	    -22.36075868	     -9.36439388	     19.86319555	     -1.91067746	      0.92716606	      0.26395886	     79.55632814	    -13.94617755	     -8.63465177	     81.20938671	      1.41737118	     11.61602489	      0.00000000	      0.00000000	     -2.87078743	    -12.51230110	     16.25655415	     21.61992995	      0.37733896	    -14.58258069	      0.00000000	      0.00000000	    -11.41477425	     17.07480892	    -14.45984446	    -71.54960541	     -8.50663341	    -35.47221668	     78.02876879	     50.87948399	      0.00000000	      0.00000000	     78.44882067	    -13.41292249	      5.84658388	    122.18319326	     41.32992103	      0.00000000	      0.00000000
      2.32000000	    -22.21714172	     -8.94838664	     18.91350199	     -1.87758129	      0.93016937	      0.26310192	     78.64501195	    -13.70457520	     -8.91085458	     76.42918510	      1.33394092	     11.58610165	      0.00000000	      0.00000000	     -4.36604462	    -11.97676673	     16.48700955	     22.41484224	      0.39121280	    -16.92487076	      0.00000000	      0.00000000	    -11.68657174	     16.98630175	    -13.35678536	    -71.14510072	     -7.88622459	    -36.74441860	     78.00293327	     50.87736885	      0.00000000	      0.00000000	     76.79722041	    -14.19608350	      6.21855845	    123.98452815	     41.42260416	      0.00000000	      0.00000000
      2.32500000	    -22.01711555	     -8.46574985	     18.06799170	     -1.84463678	      0.93339307	      0.26233478	     77.41684667	    -13.53184713	     -9.32902027	     71.51487710	      1.24817007	     11.33280142	      0.00000000	      0.00000000	     -5.55001738	    -11.28787154	     16.72765609	     23.87381907	      0.41667675	    -18.63704237	      0.00000000	      0.00000000	    -12.06192091	     16.82858462	    -12.33365593	    -70.38891962	     -7.39801412	    -37.82502466	     78.00105939	     50.87764365	      0.00000000	      0.00000000	     74.70085293	    -15.12268037	      6.81558286	    125.55526915	     41.50938899	      0.00000000	      0.00000000
      2.33000000	    -21.75936834	     -7.95380376	     17.30919743	     -1.81185590	      0.93673658	      0.26171026	     75.90307703	    -13.38268487	     -9.89186017	     66.51820298	      1.16096165	     10.85165983	      0.00000000	      0.00000000	     -6.42032530	    -10.50304393	     16.90997116	     26.00021989	      0.45378944	    -19.71548116	      0.00000000	      0.00000000	    -12.53893840	     16.62102367	    -11.39369619	    -69.32743955	     -7.13552924	    -38.61189096	     78.03032958	     50.87609351	      0.00000000	      0.00000000	     72.22662027	    -16.17878980	      7.64172090	    126.89608365	     41.59980629	      0.00000000	      0.00000000
      2.33500000	    -21.43708904	     -7.44149086	     16.61481195	     -1.77922414	      0.94011664	      0.26126454	     74.13187983	    -13.21377684	    -10.59164241	     61.50702273	      1.07350006	     10.14747238	      0.00000000	      0.00000000	     -7.00743161	     -9.67304295	     16.97771923	     28.73019366	      0.50143647	    -20.26620386	      0.00000000	      0.00000000	    -13.11681149	     16.38882018	    -10.50685256	    -68.01340700	     -7.09698887	    -39.10846059	     78.13340066	     50.87153576	      0.00000000	      0.00000000	     69.42355115	    -17.31498797	      8.68275693	    127.94066507	     41.69363879	      0.00000000	      0.00000000
      2.34000000	    -21.05184399	     -6.94825189	     15.95582763	     -1.74671413	      0.94344416	      0.26102308	     72.14627186	    -12.98805935	    -11.40541697	     56.56641153	      0.98727013	      9.23615899	      0.00000000	      0.00000000	     -7.34496953	     -8.83365854	     16.88010199	     31.97370018	      0.55804634	    -20.43956554	      0.00000000	      0.00000000	    -13.78678475	     16.15673587	     -9.68018316	    -66.46038758	     -7.24476714	    -39.38185756	     78.37141671	     50.87313255	      0.00000000	      0.00000000	     66.34787660	    -18.56881078	      9.87151243	    128.60213767	     41.77560085	      0.00000000	      0.00000000
      2.34500000	    -20.60769619	     -6.47985470	     15.30540129	     -1.71429414	      0.94663634	      0.26099406	     69.99866707	    -12.68279593	    -12.29629070	     51.79567620	      0.90400509	      8.13697943	      0.00000000	      0.00000000	     -7.47028662	     -8.00608689	     16.58964936	     35.62076113	      0.62169956	    -20.43210450	      0.00000000	      0.00000000	    -14.53601178	     15.92310490	     -8.90291254	    -64.71085824	     -7.58970596	    -39.43582592	     78.76282646	     50.88873518	      0.00000000	      0.00000000	     63.01861627	    -19.92133485	     11.15201103	    128.84125953	     41.83472293	      0.00000000	      0.00000000
